<?xml version="1.0" encoding="UTF-8"?>
<!DOCTYPE svg PUBLIC "-//W3C//DTD SVG 1.1//EN" "http://www.w3.org/Graphics/SVG/1.1/DTD/svg11.dtd">
<!-- Creator: CorelDRAW X7 -->
<svg xmlns="http://www.w3.org/2000/svg" xml:space="preserve" width="8.26772in" height="11.6929in" version="1.1" shape-rendering="geometricPrecision" text-rendering="geometricPrecision" image-rendering="optimizeQuality" fill-rule="evenodd" clip-rule="evenodd"
viewBox="0 0 8268 11693"
 xmlns:xlink="http://www.w3.org/1999/xlink">
 <g id="Layer_x0020_1">
  <metadata id="CorelCorpID_0Corel-Layer"/>
  <path fill="#2658FF" d="M2504 3761c-181,12 -352,-14 -494,149 -43,49 -48,77 -70,147 -100,2 -264,8 -356,-8 -373,-68 -169,-580 111,-597 -1,74 6,106 52,140 171,127 356,-119 182,-224 -69,-42 -278,-21 -361,2 -381,103 -559,516 -316,689 79,56 199,82 318,88 66,3 135,1 201,1 76,0 120,6 173,-31 24,81 83,121 181,131 97,9 193,-12 267,-49 139,-70 215,-189 286,-347l191 0 -105 296 206 0 104 -295 294 -1c-55,42 -51,28 -107,89 -120,130 -16,302 248,247 105,-21 202,-81 266,-134 102,-83 119,-108 202,-202l174 0 -105 296 204 0 106 -295c112,-6 244,4 348,-1 44,-3 61,-16 91,-28l-28 322c76,13 161,-2 196,-45 27,-31 232,-359 282,-435l15 -20 1 502c152,5 167,-18 223,-125 99,-185 212,-377 311,-561 19,-35 42,-81 62,-114l-135 -1 -271 501 -2 -501c-176,-4 -161,38 -276,214 -32,49 -64,101 -95,151 -16,26 -32,49 -47,75 -13,21 -37,53 -47,72 0,-58 15,-145 21,-206 18,-168 70,-306 -122,-306 -76,-1 -160,-3 -235,0 -20,39 -72,109 -83,143l260 0 -23 270 -413 1 144 -413 -267 0c-21,4 -249,290 -291,340 -95,117 -24,55 -285,78 -59,6 -105,17 -160,26l7 -31 -430 0 146 -414 -204 0c-25,39 -127,384 -151,414l-190 0 176 -499 -203 -2 -177 501zm1801 -281l-37 265 -227 -1 264 -264zm-817 645c77,0 350,-171 350,-244 0,-74 -358,-5 -430,21 -70,26 -135,58 -135,133 0,73 118,120 215,90zm-1158 -17c41,-53 210,-202 151,-232 -66,-32 -371,28 -404,93l-2 5c-33,65 -6,145 59,178 66,33 150,13 196,-44z"/>
  <path fill="#2658FF" d="M6017 3689c-108,23 -217,104 -260,169 -28,44 -49,110 -26,169 61,157 360,121 524,121 121,0 322,29 342,-91 -139,0 -278,1 -417,0 -59,0 -135,1 -175,-31 -43,-36 -39,-105 -11,-158 55,-108 225,-117 234,-187 6,-54 -85,-184 9,-235 25,-13 67,-8 97,-8 -2,48 -20,101 56,155 48,34 121,35 173,5 40,-24 81,-75 64,-147 -12,-51 -60,-97 -118,-103 -104,-12 -301,-7 -401,40 -50,24 -93,57 -112,110 -28,80 6,125 21,191z"/>
  <rect fill="none" x="656" y="3088" width="6387" height="1346"/>
 </g>
</svg>
